<svg width="62" height="62" viewBox="0 0 62 62" fill="none" xmlns="http://www.w3.org/2000/svg">
<path d="M3.63866 21.5963L3.63904 21.5944C5.44819 12.745 14.7779 5.98848 25.6479 3.50416C36.4933 1.02546 48.2756 2.94395 54.7387 10.7404C60.9525 18.2796 60.7584 29.7269 56.4788 39.7388C52.1963 49.7575 44.0236 57.8645 34.8853 58.9201C16.3159 61.0653 -0.935151 43.7625 3.63866 21.5963Z" fill="white" stroke="#FCFBF9" stroke-width="2.07217" stroke-miterlimit="10" stroke-linecap="round" stroke-linejoin="round"/>
<path d="M26.9702 36.0038C26.961 37.6129 28.7093 38.618 30.0952 37.8005L37.5559 33.3994C38.9082 32.6017 38.9167 30.6484 37.5714 29.8391L30.1615 25.381C28.785 24.5528 27.0304 25.5382 27.0211 27.1447L26.9702 36.0038Z" fill="#E48E45"/>
</svg>
